<svg width="173" height="169" viewBox="0 0 173 169" fill="none" xmlns="http://www.w3.org/2000/svg">
<path d="M36.7158 3.23621C38.4158 3.52227 39.3236 3.93412 40.0693 4.48914C40.9182 5.12091 41.6482 5.98625 42.9678 7.51257C44.3702 10.0945 44.3744 10.1092 45.6533 13.119L45.6562 13.1268C46.1493 14.2745 46.6424 15.422 47.1504 16.6044C47.8922 18.3772 47.8948 18.3832 48.6562 20.203L48.6592 20.2108L48.6631 20.2186C49.1666 21.3932 49.6697 22.568 50.1885 23.7782C54.5279 33.963 56.6149 38.8704 57.5332 42.0155C57.9749 43.5285 58.1159 44.5432 58.1191 45.4872C58.1222 46.4038 57.9969 47.3151 57.79 48.6835C55.1419 53.5386 51.5247 57.1903 47.2949 61.2118L47.2705 61.2352L47.2461 61.2596C46.0197 62.5086 45.1489 63.6395 44.5244 64.9716C43.9116 66.2788 43.5932 67.6631 43.3066 69.3007L43.2549 69.5956L43.292 69.8934C44.0419 75.8926 46.8969 81.1221 50.3926 85.7489C53.8651 90.345 58.1126 94.5213 61.7383 98.2958C63.1389 99.8253 63.1438 99.8306 64.582 101.401L64.5928 101.413L64.6045 101.425C69.9247 107.048 76.4786 113.3 83.6914 118.557C90.8879 123.802 98.8535 128.142 106.992 129.803L107.4 129.886L107.808 129.799C112.222 128.86 115.771 126.329 118.773 123.423C121.731 120.559 124.368 117.106 126.74 114.295C127.345 113.593 127.949 112.891 128.572 112.168L128.622 112.11L128.667 112.05C129.114 111.444 129.56 110.838 130.018 110.218C130.868 109.614 130.981 109.573 131.115 109.544C131.369 109.489 131.761 109.5 133.382 109.646C137.137 110.521 140.142 111.812 143.727 113.619L143.729 113.621C145.703 114.611 145.708 114.612 147.713 115.618V115.619C149.073 116.313 150.434 117.008 151.836 117.724L151.843 117.726L151.85 117.73C153.217 118.415 154.585 119.099 155.993 119.804V119.805C161.981 122.829 164.879 124.294 166.738 125.39C168.323 126.323 169.103 126.959 170.52 128.189C172.281 137.026 168.956 145.374 164.228 153.429C153.776 163.218 141.101 166.471 126.748 166.37C103.312 164.491 79.1007 150.897 60.9863 136.02L60.9805 136.016L59.0752 134.463H59.0742C47.255 124.795 33.9123 112.197 23.0801 98.0341C12.2407 83.862 4.03469 68.2774 2.22754 52.6024C1.2575 37.6216 3.1279 25.4446 12.9346 14.036C16.2031 10.6891 19.0981 8.10386 22.29 6.3075C25.4526 4.52766 28.9858 3.47946 33.5723 3.36121H33.5859L33.5996 3.36023C35.1755 3.29805 35.2463 3.29419 36.7158 3.23621Z" stroke="#D4B26C" stroke-width="4"/>
<path d="M89.2135 36.9304V36.9304C110.211 39.853 126.581 57.019 128.895 78.0927V78.0927" stroke="#D4B26C" stroke-width="4" stroke-linecap="round"/>
<path d="M96.6746 19.4286L104.567 20.5271C126.335 23.557 143.264 40.9839 145.663 62.8305L146.581 71.1982" stroke="#D4B26C" stroke-width="4" stroke-linecap="round"/>
<path d="M84.6849 53.4693V53.4693C101.113 53.1561 114.367 67.0329 113.582 83.4452V83.4452" stroke="#D4B26C" stroke-width="4" stroke-linecap="round"/>
</svg>
