<svg width="35" height="37" viewBox="0 0 35 37" fill="none" xmlns="http://www.w3.org/2000/svg">
<path d="M12.9353 10.6855L11.7418 1.75711C0.850916 -1.48302 1.00011 6.72532 1.00011 6.72532C1.44768 33.2224 24.2738 36.0305 25.3927 36.0305C32.4941 35.6849 32.877 29.8863 32.1808 27.0302L23.5278 23.862C22.4835 25.2541 20.365 27.995 20.2456 27.8222C12.1297 24.5965 8.70826 16.3017 8.01204 12.5576L12.9353 10.6855Z" stroke="black"/>
<path d="M17.6777 11.2387C19.7169 11.6036 23.8467 13.5698 24.0528 18.5153" stroke="black" stroke-linecap="round"/>
<path d="M19.5684 7.23713C22.569 8.00569 28.5121 11.4035 28.2799 18.8464" stroke="black" stroke-linecap="round"/>
<path d="M21.9453 1.92995C26.0366 3.1506 34.0388 8.15158 33.3169 18.3903" stroke="black" stroke-linecap="round"/>
</svg>
