<svg width="42" height="42" viewBox="0 0 42 42" fill="none" xmlns="http://www.w3.org/2000/svg">
<path d="M27.3067 15.6843L16.6492 25.2918L25.5217 32.1168C25.9767 32.3093 26.9707 32.4633 27.3067 31.5393L31.2442 13.3743C31.4996 11.97 30.1346 12.0749 29.9771 12.1668C30.0191 12.2088 15.3017 17.6793 7.88174 20.4618C7.32174 20.8118 6.53774 21.6168 7.88174 22.0368C7.88174 22.1208 11.6617 23.2618 13.5517 23.8218L19.3792 20.0418" stroke="black" stroke-linecap="round"/>
<path d="M13.7021 24.0846L15.6446 30.5946C15.7321 30.9096 16.1276 31.4451 17.0096 31.0671C17.1356 31.1511 18.2871 29.8421 18.8471 29.1771" stroke="black" stroke-linecap="round"/>
<circle cx="21" cy="21" r="20.5" stroke="black"/>
</svg>
