<svg width="205" height="204" viewBox="0 0 205 204" fill="none" xmlns="http://www.w3.org/2000/svg">
<path d="M143.467 52.1173C146.848 50.9705 149.365 50.8058 152.363 52.0226C154.109 54.599 153.663 57.1467 153.366 61.4581C152.896 64.8311 152.224 68.1616 151.504 71.5616L151.502 71.5685L151.501 71.5763C151.306 72.5356 151.111 73.4951 150.91 74.4835C150.289 77.5247 149.656 80.5643 149.022 83.6075L149.021 83.6124L146.559 95.6163C146.36 96.5824 146.162 97.5487 145.957 98.5441V98.546C144.792 104.241 143.704 109.945 142.723 115.682C141.621 122.09 140.329 128.467 139 134.866L138.999 134.869C138.709 136.278 138.423 137.687 138.14 139.097C137.727 141.156 137.301 143.214 136.872 145.276L136.869 145.298C136.747 145.916 136.625 146.535 136.499 147.171C136.202 148.569 135.991 149.56 135.798 150.316C135.604 151.076 135.459 151.471 135.333 151.714C135.172 152.027 135.04 152.17 134.015 152.846C128.609 153.667 125.634 151.082 120.254 147.343L120.233 147.328L120.21 147.314C119.044 146.547 117.873 145.787 116.703 145.031L113.193 142.773C106.532 138.481 106.547 138.491 103.463 136.405L103.452 136.398L101.071 134.811C100.409 134.361 99.7474 133.911 99.0658 133.447L98.9535 133.372L98.8334 133.312L98.3861 133.095C97.3538 132.607 96.3868 132.254 95.3373 132.087C94.1333 131.895 92.9584 131.968 91.6136 132.184L91.1166 132.264L90.7172 132.569C90.0187 133.103 89.5069 133.487 89.0433 133.968C88.5965 134.432 88.2094 134.969 87.6605 135.727C87.1908 136.305 86.7216 136.884 86.2377 137.48L86.2347 137.483C85.7063 138.135 85.1772 138.788 84.6332 139.46C83.3363 140.925 82.0315 142.383 80.7181 143.833L80.7133 143.839C80.0996 144.521 79.4859 145.204 78.8539 145.906C78.051 146.786 77.2313 147.651 76.3978 148.501C75.8733 148.401 75.5538 148.293 75.2875 148.158C74.963 147.995 74.6202 147.743 74.0687 147.224C73.7803 144.417 73.8565 141.584 73.8529 138.532V138.511L73.8519 138.489L73.7914 135.801C73.7817 132.647 74.0126 130.428 74.6683 128.442C75.3134 126.487 76.4174 124.615 78.3705 122.244C81.2793 119.421 84.255 116.784 87.4154 114.251L87.4174 114.25C93.2676 109.549 98.6397 104.37 103.987 99.297C105.611 97.7672 107.25 96.2524 108.9 94.7404L108.902 94.7394C109.419 94.2646 109.935 93.7891 110.468 93.2999C111.432 92.4169 112.398 91.5371 113.366 90.6593C115.991 88.29 117.478 86.9569 118.698 85.4171C119.919 83.8747 120.854 82.1479 122.516 79.1046L124.872 74.7892L120.172 76.2355C113.584 78.2627 108.412 81.8258 103.128 85.5763C102.574 85.9697 102.019 86.3634 101.448 86.7687L101.445 86.7706C94.6654 91.5964 87.9607 96.5166 81.3119 101.514C80.497 102.123 80.4968 102.123 79.6654 102.744L79.6644 102.745C77.2483 104.554 74.8481 106.384 72.475 108.276C71.3285 109.171 71.3284 109.172 70.1586 110.085L70.1459 110.095L70.1342 110.105C69.2353 110.829 69.1827 110.871 68.3656 111.529C66.3734 112.554 64.7261 113.055 63.1107 113.192C61.4504 113.331 59.6871 113.097 57.4545 112.47C55.4006 111.761 53.3688 110.984 51.3344 110.171L49.2758 109.337C47.5195 108.618 45.758 107.924 44.0043 107.237C39.0687 105.277 36.7429 104.35 35.3109 103.623C34.2473 103.083 33.7517 102.694 32.8998 101.911C32.8453 101.299 32.8217 100.979 32.8217 100.683C32.8217 100.483 32.8314 100.291 32.8558 100.013C40.008 96.2819 47.2835 92.9327 54.7504 89.8126L54.7543 89.8107C56.6625 89.0084 58.57 88.2044 60.4779 87.4015C61.4503 86.9928 62.4233 86.5853 63.4252 86.1642L63.4271 86.1632C65.7502 85.1841 68.0705 84.1992 70.389 83.212L77.3392 80.2462C79.1746 79.4627 81.0106 78.679 82.8461 77.8956C84.2205 77.3089 84.219 77.3097 85.6215 76.7111L85.6205 76.7101C101.135 70.0891 116.634 63.485 132.241 57.1407L132.251 57.1368L132.262 57.132C134.103 56.3591 135.925 55.5526 137.733 54.7316C138.489 54.3913 138.492 54.3912 139.268 54.0421L139.27 54.0411C140.676 53.4064 142.075 52.7599 143.467 52.1173Z" stroke="#D4B26C" stroke-width="4"/>
<circle cx="102.822" cy="102" r="100" stroke="#D4B26C" stroke-width="4"/>
</svg>
