<svg width="208" height="208" viewBox="0 0 208 208" fill="none" xmlns="http://www.w3.org/2000/svg">
<path d="M67.1896 43.99C68.3655 44.1928 68.9498 44.4723 69.4172 44.8201C69.9881 45.245 70.4837 45.8278 71.4582 46.9548C72.4675 48.8131 72.4722 48.829 73.4103 51.0369L73.4142 51.0447C73.7814 51.8993 74.1483 52.754 74.5266 53.6345V53.6335C75.0772 54.9495 75.0793 54.9557 75.6457 56.3093L75.6486 56.3171L75.6525 56.325C76.0274 57.1995 76.402 58.0743 76.7883 58.9753C80.0273 66.5775 81.5636 70.1933 82.2365 72.4978C82.5556 73.5907 82.6503 74.2981 82.6525 74.9421C82.6546 75.5611 82.5731 76.1813 82.4279 77.1472C80.5016 80.6495 77.8779 83.3063 74.7512 86.2791L74.7267 86.3025L74.7023 86.3269C73.7651 87.2814 73.0751 88.1704 72.5773 89.2322C72.0912 90.2691 71.8453 91.3549 71.6301 92.5847L71.5783 92.8796L71.6154 93.1775C72.1893 97.7684 74.3711 101.747 77.0021 105.229C78.9624 107.824 81.2529 110.241 83.4094 112.469L85.5041 114.633C86.5252 115.748 86.5364 115.759 87.5998 116.921L87.6105 116.933L87.6213 116.945C91.5952 121.146 96.4993 125.825 101.904 129.764C107.293 133.692 113.294 136.968 119.454 138.225L119.862 138.309L120.271 138.222C123.689 137.495 126.415 135.539 128.685 133.342C130.916 131.182 132.915 128.563 134.661 126.495C135.107 125.977 135.554 125.46 136.013 124.927L136.063 124.87L136.108 124.808C136.425 124.378 136.742 123.948 137.066 123.509C137.291 123.348 137.427 123.255 137.539 123.188C137.596 123.155 137.624 123.141 137.633 123.137C137.635 123.137 137.639 123.137 137.644 123.136C137.655 123.135 137.673 123.133 137.7 123.132C137.758 123.128 137.846 123.127 137.983 123.133C138.25 123.143 138.595 123.173 139.124 123.221C141.849 123.86 144.039 124.799 146.681 126.131L146.685 126.132C148.153 126.868 148.158 126.87 149.648 127.618V127.619C150.66 128.136 151.673 128.653 152.717 129.185L152.725 129.189L152.732 129.192C153.749 129.701 154.767 130.21 155.815 130.735V130.736C160.283 132.993 162.421 134.075 163.787 134.88C164.879 135.523 165.433 135.963 166.396 136.796C167.588 143.1 165.226 149.099 161.774 154.995C154.131 162.124 144.863 164.517 134.291 164.445C116.993 163.052 99.0694 153.004 85.6223 141.961L85.6164 141.957L84.2004 140.802H84.2014C75.4189 133.619 65.5133 124.265 57.4777 113.759C49.4357 103.244 43.3851 91.7298 42.0519 80.1902C41.3364 69.1125 42.7255 60.2054 49.9006 51.8562C52.3173 49.383 54.4277 47.5074 56.7336 46.2097C59.0124 44.9272 61.5614 44.1678 64.8976 44.0818L64.9113 44.0808H64.925C66.0781 44.0353 66.1491 44.031 67.1896 43.99Z" stroke="#D4B26C" stroke-width="4"/>
<path d="M103.911 2C160.195 2.00017 205.821 47.6275 205.821 103.911C205.821 160.195 160.195 205.821 103.911 205.821C83.4002 205.821 64.3095 199.764 48.3242 189.342L47.5352 188.827L46.6348 189.108L24.209 196.125L24.8926 184.586L25.748 170.154L25.7939 169.369L25.2939 168.763C10.7416 151.142 2.00007 128.55 2 103.911C2 47.6274 47.6273 2 103.911 2Z" stroke="#D4B26C" stroke-width="4"/>
</svg>
