<svg width="42" height="42" viewBox="0 0 42 42" fill="none" xmlns="http://www.w3.org/2000/svg">
<mask id="path-1-inside-1_851_3863" fill="white">
<path fill-rule="evenodd" clip-rule="evenodd" d="M21 41.8953C32.598 41.8953 42 32.5167 42 20.9476C42 9.37857 32.598 0 21 0C9.40202 0 0 9.37857 0 20.9476C0 25.9716 1.77306 30.5825 4.72904 34.1917L3.58351 41.4903L10.2946 38.9728C13.4294 40.8293 17.0899 41.8953 21 41.8953Z"/>
</mask>
<path d="M4.72904 34.1917L5.71695 34.3467L5.78637 33.9044L5.50268 33.5581L4.72904 34.1917ZM3.58351 41.4903L2.5956 41.3353L2.32982 43.0287L3.93474 42.4266L3.58351 41.4903ZM10.2946 38.9728L10.8042 38.1123L10.3919 37.8682L9.94335 38.0365L10.2946 38.9728ZM41 20.9476C41 31.9621 32.048 40.8953 21 40.8953V42.8953C33.1479 42.8953 43 33.0713 43 20.9476H41ZM21 1C32.048 1 41 9.93321 41 20.9476H43C43 8.82394 33.1479 -1 21 -1V1ZM1 20.9476C1 9.93321 9.95195 1 21 1V-1C8.85209 -1 -1 8.82394 -1 20.9476H1ZM5.50268 33.5581C2.68754 30.1209 1 25.732 1 20.9476H-1C-1 26.2112 0.858578 31.0442 3.9554 34.8253L5.50268 33.5581ZM4.57142 41.6454L5.71695 34.3467L3.74113 34.0366L2.5956 41.3353L4.57142 41.6454ZM9.94335 38.0365L3.23228 40.554L3.93474 42.4266L10.6458 39.909L9.94335 38.0365ZM21 40.8953C17.274 40.8953 13.7888 39.8799 10.8042 38.1123L9.78501 39.8332C13.0699 41.7786 16.9058 42.8953 21 42.8953V40.8953Z" fill="black" mask="url(#path-1-inside-1_851_3863)"/>
<path d="M18.3811 15.3965L17.5432 8.90272C9.89729 6.54611 10.002 12.5162 10.002 12.5162C10.3162 31.788 26.3412 33.8304 27.1267 33.8304C32.1123 33.579 32.3811 29.3616 31.8923 27.2843L25.8175 24.98C25.0843 25.9925 23.597 27.986 23.5132 27.8603C17.8155 25.5142 15.4135 19.4813 14.9247 16.7581L18.3811 15.3965Z" stroke="black"/>
</svg>
