<svg id="svg" fill="#fff" stroke="#fff" width="200" height="200" version="1.1" viewBox="144 144 512 512" xmlns="http://www.w3.org/2000/svg">
    <g id="IconSvg_bgCarrier" stroke-width="0"></g>
    <g id="IconSvg_tracerCarrier" stroke-linecap="round" stroke-linejoin="round" stroke="#CCCCCC" stroke-width="0">
      <defs xmlns="http://www.w3.org/2000/svg">
  <clipPath id="a">
   <path d="m148.09 243h503.81v314h-503.81z"></path>
  </clipPath>
 </defs>
<g xmlns="http://www.w3.org/2000/svg" clip-path="url(#a)">
  <path d="m651 396.39c-48.84-94.133-144.99-152.62-251-152.62s-202.16 58.492-251 152.62l-1.8555 3.6055 1.8555 3.6055c48.844 94.137 144.99 152.63 251 152.63s202.16-58.496 251-152.63l1.8555-3.6055zm-251 144.09c-98.746 0-188.43-53.723-235.14-140.48 46.668-86.762 136.4-140.48 235.14-140.48 98.746 0.003906 188.42 53.727 235.14 140.49-46.723 86.762-136.4 140.48-235.14 140.48zm0-252.8c-61.941 0-112.32 50.383-112.32 112.32s50.383 112.32 112.32 112.32 112.32-50.383 112.32-112.32c-0.003907-61.945-50.383-112.32-112.32-112.32zm0 208.95c-53.246 0-96.574-43.328-96.574-96.625s43.328-96.625 96.574-96.625 96.574 43.328 96.574 96.625c-0.003907 53.297-43.332 96.625-96.574 96.625z"></path>
 </g>

      </g>
     <g id="IconSvg_iconCarrier">
      <defs xmlns="http://www.w3.org/2000/svg">
  <clipPath id="a">
   <path d="m148.09 243h503.81v314h-503.81z"></path>
  </clipPath>
 </defs>
<g xmlns="http://www.w3.org/2000/svg" clip-path="url(#a)">
  <path d="m651 396.39c-48.84-94.133-144.99-152.62-251-152.62s-202.16 58.492-251 152.62l-1.8555 3.6055 1.8555 3.6055c48.844 94.137 144.99 152.63 251 152.63s202.16-58.496 251-152.63l1.8555-3.6055zm-251 144.09c-98.746 0-188.43-53.723-235.14-140.48 46.668-86.762 136.4-140.48 235.14-140.48 98.746 0.003906 188.42 53.727 235.14 140.49-46.723 86.762-136.4 140.48-235.14 140.48zm0-252.8c-61.941 0-112.32 50.383-112.32 112.32s50.383 112.32 112.32 112.32 112.32-50.383 112.32-112.32c-0.003907-61.945-50.383-112.32-112.32-112.32zm0 208.95c-53.246 0-96.574-43.328-96.574-96.625s43.328-96.625 96.574-96.625 96.574 43.328 96.574 96.625c-0.003907 53.297-43.332 96.625-96.574 96.625z"></path>
 </g>

      </g>
      </svg>