<svg width="207" height="205" viewBox="0 0 207 205" fill="none" xmlns="http://www.w3.org/2000/svg">
<mask id="mask0_2028_202" style="mask-type:luminance" maskUnits="userSpaceOnUse" x="1" y="0" width="205" height="205">
<path d="M205.975 0H1.02478V205H205.975V0Z" fill="white"/>
</mask>
<g mask="url(#mask0_2028_202)">
<path d="M99.4008 2H107.599C130.843 2 148.075 2.00402 161.305 3.7832C174.478 5.55463 183.384 9.05286 190.154 15.8242C196.924 22.5958 200.421 31.5046 202.192 44.6807C203.971 57.9143 203.975 75.1508 203.975 98.4004V106.6C203.975 129.849 203.971 147.086 202.192 160.319C200.421 173.495 196.924 182.404 190.154 189.176C183.384 195.947 174.478 199.445 161.305 201.217C148.075 202.996 130.843 203 107.599 203H99.4008C76.1569 203 58.925 202.996 45.6947 201.217C32.5221 199.445 23.616 195.947 16.8461 189.176C10.0761 182.404 6.57905 173.495 4.80798 160.319C3.0292 147.086 3.02478 129.849 3.02478 106.6V98.4004C3.02478 75.1508 3.0292 57.9143 4.80798 44.6807C6.57905 31.5045 10.0761 22.5959 16.8461 15.8242C23.616 9.05276 32.5221 5.55466 45.6947 3.7832C58.925 2.00401 76.1569 2 99.4008 2Z" stroke="#D4B26C" stroke-width="4"/>
<path d="M57.0627 64.3549C58.3732 102.648 75.6124 119.754 90.2053 123.404L92.6907 124.025V64.3549H110.724V98.3207L112.938 98.0824C120.323 97.2875 127.65 92.7359 133.665 86.3988C139.372 80.3871 144.066 72.5997 146.661 64.3549H164.764C160.525 83.2805 146.379 97.2918 136.23 103.161L132.915 105.078L136.382 106.703C146.545 111.468 162.703 123.725 169.653 145.686H149.513C143.823 129.515 130.525 116.954 112.922 115.202L110.724 114.983V145.686H110.075C87.2101 145.686 69.4606 137.867 57.2581 123.703C45.3334 109.861 38.5203 89.7407 37.6672 64.3549H57.0627Z" stroke="#D4B26C" stroke-width="4"/>
</g>
</svg>
